<svg width="5785" height="6000" viewBox="0 0 5785 6000" fill="none" xmlns="http://www.w3.org/2000/svg">
<g clip-path="url(#clip0_403_1222)">
<path fill-rule="evenodd" clip-rule="evenodd" d="M5620 2999.5C5620 4557.44 4403.55 5829 2892.49 5829C1381.45 5829 165 4557.44 165 2999.5C165 1441.54 1381.45 170 2892.49 170C4403.55 170 5620 1441.54 5620 2999.5Z" fill="#0E1F2A" stroke="#ECC900" stroke-width="99.0863"/>
<path fill-rule="evenodd" clip-rule="evenodd" d="M1970.13 1891.89C1963.28 2025.2 1970.5 2158.2 1999.44 2288.78C2027.91 2417.19 2075.67 2544.61 2133.26 2662.72C2188.52 2775.98 2268.42 2878.13 2362.2 2962.02C2409.24 3004.05 2460.77 3041.39 2515.18 3073.3C2574.1 3107.89 2637.6 3131.73 2700.98 3156.64C2764.69 3181.65 2833.91 3215.84 2903.27 3218.07C2950.44 3219.58 2950.3 3146.48 2903.27 3144.97C2868.94 3143.87 2837.06 3129.39 2805.08 3118.16C2767.81 3105.03 2731.13 3090.36 2694.34 3075.91C2633.49 3051.99 2575.57 3025.88 2520.2 2990.78C2415.16 2924.2 2325.44 2833.02 2256.36 2729.91C2183.78 2621.6 2135.74 2495.57 2097.26 2371.67C2059.24 2249.27 2041.29 2123.57 2040.5 1995.53C2040.29 1960.98 2041.46 1926.39 2043.23 1891.89C2045.65 1844.76 1972.54 1844.99 1970.13 1891.89Z" fill="#ECC900"/>
<path fill-rule="evenodd" clip-rule="evenodd" d="M3743.84 1873.2C3750.88 2007.89 3749.6 2143.27 3725.28 2276.27C3701.59 2405.97 3658.19 2535.85 3596.53 2652.49C3537.81 2763.44 3455.5 2860.57 3358.11 2939.54C3253.02 3024.74 3127.57 3073.01 3001.5 3118.16C2969.63 3129.57 2937.53 3143.87 2903.27 3144.97C2856.28 3146.48 2856.14 3219.58 2903.27 3218.08C2939.29 3216.9 2970.54 3205.79 3004.18 3194.45C3041.3 3181.95 3077.8 3167.53 3114.22 3153.23C3177.28 3128.51 3239.27 3103.89 3297.81 3069.56C3407.59 3005.15 3501.27 2916.76 3578.34 2816.04C3658.71 2710.99 3711.97 2588.66 3752.94 2463.59C3793.87 2338.48 3814.41 2207.86 3819.59 2076.52C3822.23 2008.77 3820.47 1940.88 3816.95 1873.2C3814.49 1826.32 3741.38 1826.08 3743.84 1873.2Z" fill="#ECC900"/>
<path fill-rule="evenodd" clip-rule="evenodd" d="M3056.78 262.791C3053.77 493.187 2988.96 718.021 2862.67 911.235C2733.7 1108.46 2538.26 1267.52 2319.93 1355.99C2255.99 1381.9 2189.67 1401.55 2123.66 1421.35C2078.63 1434.86 2097.82 1505.41 2143.09 1491.83C2280.03 1450.75 2411.17 1403.16 2533.43 1327.87C2632.86 1266.65 2724.05 1191.4 2803.17 1105.55C2958.99 936.379 3063.6 723.872 3106.59 498.248C3121.37 420.694 3128.82 341.695 3129.89 262.791C3130.51 215.633 3057.4 215.707 3056.78 262.791Z" fill="#ECC900"/>
<path fill-rule="evenodd" clip-rule="evenodd" d="M2500.32 1260.21C2434.06 1187.52 2324.13 1173.76 2231.39 1168.47C2126.2 1162.47 2023.16 1174.48 1925.32 1215.15C1822.67 1257.8 1733.14 1325.17 1655.68 1404.27C1566.87 1494.91 1502.61 1604.24 1443.98 1715.89C1433.44 1735.97 1441.91 1764.05 1465.82 1769.58C1669.49 1816.62 1885.42 1813.59 2083.31 1742.74C2183.37 1706.92 2275.19 1653.75 2357.4 1586.63C2437.32 1521.38 2513.7 1438.8 2515.91 1329.9C2516.85 1282.75 2443.75 1282.84 2442.8 1329.9C2440.93 1422.91 2360.59 1491.06 2293.54 1544.8C2219.24 1604.34 2132.49 1649.17 2042.55 1679.69C1863.52 1740.47 1668.39 1741.4 1485.26 1699.09C1492.54 1716.99 1499.82 1734.89 1507.1 1752.78C1560.48 1651.11 1617.73 1551.28 1696.71 1467.06C1766.33 1392.8 1847.24 1330.2 1940.07 1287.78C2026.25 1248.41 2118.41 1237.53 2212.1 1240.69C2290.63 1243.34 2392.06 1249.81 2448.64 1311.89C2480.45 1346.8 2531.99 1294.96 2500.32 1260.21Z" fill="#ECC900"/>
<path fill-rule="evenodd" clip-rule="evenodd" d="M2113.91 624.501C2281.24 680.899 2464.08 706.46 2640.31 693.208C2820.41 679.663 3019.73 612.478 3115.14 446.905C3138.73 405.994 3075.56 369.201 3052.01 410.017C2965.92 559.422 2780.21 611.634 2619.48 621.541C2456.05 631.621 2288.26 606.235 2133.35 554.019C2088.55 538.922 2069.5 609.529 2113.91 624.501Z" fill="#ECC900"/>
<path fill-rule="evenodd" clip-rule="evenodd" d="M2375.54 641.384C2291 715.802 2167.3 707.755 2067.26 674.043C1956.09 636.587 1849.22 547.82 1812.9 433.36C1798.7 388.615 1728.11 407.743 1742.41 452.796C1786.6 592.055 1908.06 693.546 2041.7 742.373C2168.73 788.783 2321.81 785.867 2427.22 693.065C2462.67 661.862 2410.76 610.365 2375.54 641.384Z" fill="#ECC900"/>
<path fill-rule="evenodd" clip-rule="evenodd" d="M1787.4 474.752C1896.23 480.066 2005.2 461.158 2113.82 473.703C2227.14 486.779 2321.64 562.55 2356.39 672.059C2370.59 716.826 2441.17 697.69 2426.88 652.63C2386.33 524.844 2282 431.221 2150.77 406.045C2030.7 383.032 1908.35 407.57 1787.4 401.662C1740.27 399.358 1740.49 472.463 1787.4 474.752Z" fill="#ECC900"/>
<path fill-rule="evenodd" clip-rule="evenodd" d="M1416.02 1093.47C1524.26 1031.46 1639.88 984.7 1765.64 978.131C1897.17 971.261 2019.9 1009.43 2146.84 1036.58C2290.22 1067.26 2438.52 1062.56 2581.03 1029.71C2653 1013.11 2722.51 987.825 2790.08 958.181C2850.71 931.57 2909.54 900.602 2961.08 858.645C2993.69 832.071 3020.8 797.545 3037.19 758.754C3044.93 740.403 3042.88 719.782 3024.06 708.753C3008.58 699.682 2981.8 703.501 2974.07 721.866C2949.86 779.14 2903.38 815.445 2851.04 846.083C2789.16 882.285 2722.11 910.293 2654.25 933.027C2517.51 978.842 2370.62 996.173 2227.38 976.77C2155.4 967.013 2086.02 945.098 2015.13 929.945C1953.57 916.792 1890.88 907.553 1827.96 904.831C1705.63 899.553 1588.02 928.922 1477.24 979.282C1443.66 994.548 1411.11 1012.03 1379.13 1030.35C1338.25 1053.77 1375.05 1116.93 1416.02 1093.47Z" fill="#ECC900"/>
<path fill-rule="evenodd" clip-rule="evenodd" d="M1779.13 894.759C1659.95 771.474 1476.87 793.804 1333.79 858.098C1265.7 888.7 1201.18 932.696 1149.95 987.161C1082.91 1058.45 1048.2 1147.13 1030.98 1242.22C1026.74 1265.62 1040.91 1288.04 1066.22 1288.48C1201.37 1290.87 1338.97 1264.11 1464.58 1214.7C1591.83 1164.65 1716.77 1085.79 1784.85 963.407C1807.78 922.184 1744.65 885.329 1721.73 926.519C1661.91 1034.08 1550.77 1102.68 1438.98 1146.64C1321.27 1192.94 1192.78 1217.64 1066.22 1215.39C1077.96 1230.82 1089.71 1246.24 1101.46 1261.66C1116.21 1180.19 1142.31 1105.44 1198.05 1042.76C1242.36 992.938 1299.53 955.668 1359.08 926.651C1473.29 871.006 1630.31 845.958 1727.46 946.443C1760.26 980.379 1811.89 928.643 1779.13 894.759Z" fill="#ECC900"/>
<path fill-rule="evenodd" clip-rule="evenodd" d="M2279.59 987.681C2042.24 1028.23 1812.87 1116.71 1618.64 1260.46C1412.58 1412.96 1237.82 1628.2 1158.12 1873.84C1073.84 2133.62 1126.61 2408.02 1255.75 2643.1C1326.76 2772.35 1421.06 2888.37 1517.38 2999.43C1617.17 3114.49 1724.1 3223.14 1831.6 3330.94C1848.83 3348.25 1866.1 3365.49 1883.38 3382.76C1916.74 3416.14 1968.42 3364.46 1935.06 3331.08C1827.3 3223.32 1719.6 3115.45 1617.41 3002.33C1517.95 2892.22 1421.42 2777.08 1344.2 2650.03C1274.42 2535.15 1223.35 2409.71 1200.3 2277.04C1178.03 2148.88 1189.73 2016.99 1228.61 1893.27C1301.29 1662.03 1473.34 1456.88 1666.96 1315.16C1853.3 1178.76 2072.41 1096.87 2299.02 1058.16C2345.42 1050.24 2325.67 979.814 2279.59 987.681Z" fill="#ECC900"/>
<path fill-rule="evenodd" clip-rule="evenodd" d="M829.884 2460.36C853.715 2235.12 920.129 2010.6 1029.86 1812.14C1085.23 1711.98 1153.4 1619.26 1236.44 1540.28C1276.53 1502.17 1320.3 1468.56 1367.29 1439.42C1427.24 1402.25 1493.3 1383.41 1562.04 1369.86C1570.53 1368.19 1579.06 1366.66 1587.58 1365.14C1633.94 1356.86 1614.23 1286.42 1568.15 1294.67C1498.41 1307.15 1430.38 1324.27 1366.53 1355.7C1313.61 1381.75 1264.86 1419.17 1219.95 1457.06C1131.96 1531.29 1059.26 1623.32 998.673 1720.78C876.395 1917.51 802.15 2145.84 767.784 2374.05C763.474 2402.74 759.846 2431.53 756.794 2460.36C754.696 2480.2 775.01 2496.89 793.339 2496.89C814.849 2496.89 827.789 2480.17 829.884 2460.36Z" fill="#ECC900"/>
<path fill-rule="evenodd" clip-rule="evenodd" d="M877.225 1941.54C708.807 2021.17 608.857 2189.6 583.265 2370.02C570.361 2461.02 574.575 2553.16 594.683 2642.84C620.704 2758.82 682.016 2858.58 747.164 2956.33C760.2 2975.88 787.028 2980.98 804.561 2963.74C930.874 2839.47 1028.08 2684.69 1059.58 2508.48C1093.93 2316.32 1047.48 2124.56 946.72 1959.51C922.203 1919.38 858.97 1956.06 883.6 1996.41C933.101 2077.47 968.916 2161.46 986.654 2255.03C1001.65 2334.15 1001.99 2416.93 987.828 2496.2C958.949 2657.69 868.422 2798.39 752.882 2912.06C772.011 2914.52 791.151 2916.98 810.28 2919.43C750.638 2829.97 694.619 2740.59 668.019 2635.32C647.976 2556.02 644.242 2473.24 653.475 2392.1C672.152 2228 762.397 2076.41 914.111 2004.66C956.705 1984.52 919.588 1921.51 877.225 1941.54Z" fill="#ECC900"/>
<path fill-rule="evenodd" clip-rule="evenodd" d="M1435.42 2387.26C1469.39 2574.58 1595.1 2733.03 1732.2 2858.55C1803.79 2924.06 1882.06 2982.6 1963.43 3035.34C2000.79 3059.59 2039.13 3082.25 2078.15 3103.71C2132.66 3133.68 2190.78 3156.31 2246.5 3183.85C2288.59 3204.65 2325.64 3141.6 2283.38 3120.73C2231.47 3095.05 2177.25 3073.96 2126.17 3046.64C2089.29 3026.87 2053.24 3005.63 2017.81 2983.4C1939.07 2934 1864.32 2878.46 1794.83 2816.73C1661.22 2698.04 1538.59 2548.1 1505.91 2367.82C1497.5 2321.49 1427.08 2341.19 1435.42 2387.26Z" fill="#ECC900"/>
<path fill-rule="evenodd" clip-rule="evenodd" d="M1509.62 2517.69C1476.36 2511.67 1449.09 2466.74 1430.96 2436.45C1407.07 2396.54 1387.45 2352.96 1376.14 2307.74C1345.65 2185.85 1401.03 2047.43 1468.11 1947.7C1448.98 1950.16 1429.84 1952.61 1410.71 1955.07C1559.68 2087.7 1611.17 2352.45 1492.7 2519.89C1465.42 2558.48 1528.84 2594.9 1555.82 2556.75C1692.07 2364.19 1633.94 2056.12 1462.39 1903.4C1444.07 1887.09 1418.62 1890.55 1404.99 1910.8C1325.17 2029.49 1270.92 2188.35 1306.73 2331.51C1320.12 2384.95 1345.58 2437.29 1374.34 2484.02C1400.01 2525.76 1438.38 2578.8 1490.18 2588.19C1536.26 2596.55 1555.95 2526.13 1509.62 2517.69Z" fill="#ECC900"/>
<path fill-rule="evenodd" clip-rule="evenodd" d="M1757.03 2299.52C1781.19 2468.21 1835.11 2630.74 1914.94 2781.23C1954.07 2854.99 2000.08 2925.01 2050.71 2991.36C2107.11 3065.31 2170.44 3125.35 2246.5 3178.98C2285.13 3206.19 2321.59 3142.77 2283.38 3115.85C2213.35 3066.48 2155.52 3009.78 2103.95 2941.48C2055.32 2877.03 2012.12 2808.55 1974.3 2737.25C1898.77 2594.9 1850.35 2439.45 1827.51 2280.12C1824.69 2260.35 1799.91 2249.82 1782.56 2254.59C1761.56 2260.35 1754.21 2279.83 1757.03 2299.52Z" fill="#ECC900"/>
<path fill-rule="evenodd" clip-rule="evenodd" d="M1809.33 2104.65C1809.13 2042.92 1804.62 1980.27 1817.77 1919.46C1827.71 1873.52 1757.25 1853.98 1747.29 1900.04C1732.67 1967.62 1736.02 2036.02 1736.24 2104.65C1736.39 2151.78 1809.48 2151.78 1809.33 2104.65Z" fill="#ECC900"/>
<path fill-rule="evenodd" clip-rule="evenodd" d="M2983.68 683.452C2973.15 816.175 3026.66 943.084 3093.35 1054.82C3161.17 1168.45 3244.73 1275.01 3329.68 1376.24C3421.68 1485.84 3523.43 1582.88 3640.22 1665.68C3751.98 1744.88 3869.62 1821.06 3944.78 1938.82C4002.99 2030.04 4012.16 2133.73 4010.25 2239.44C4009.37 2286.61 4082.47 2286.54 4083.32 2239.44C4085.48 2120.27 4071.69 2005.14 4007.87 1901.94C3934.21 1782.76 3817.94 1701.19 3705.22 1622.32C3587.77 1540.13 3485.61 1446.44 3392.37 1337.51C3306.65 1237.4 3224.81 1130.72 3156.48 1017.93C3095.37 917.064 3047.24 803.597 3056.78 683.452C3060.52 636.437 2987.38 636.792 2983.68 683.452Z" fill="#ECC900"/>
<path fill-rule="evenodd" clip-rule="evenodd" d="M3966.53 1954.56C3921.27 1989.66 3895.81 2045.01 3875.34 2096.91C3852.97 2153.76 3837.42 2214.46 3829.05 2274.88C3818.49 2351.5 3818.6 2428.82 3819.15 2505.99C3819.7 2590.2 3823.95 2672.26 3840.17 2755.11C3846.04 2785.15 3881.69 2786.4 3901.28 2771.25C4031.9 2670.09 4145.83 2533.02 4191.24 2371.74C4213.9 2291.27 4213.9 2205.33 4190.25 2125.15C4164.97 2039.54 4113.95 1971.76 4035.2 1929.36C3993.67 1907.02 3956.77 1970.11 3998.3 1992.48C4064.14 2027.92 4100.93 2080.73 4121.95 2152C4142.82 2222.61 4137.46 2296.66 4116.63 2366.54C4074 2509.62 3965.39 2629.89 3849.59 2719.57C3869.95 2724.96 3890.31 2730.32 3910.67 2735.71C3896.29 2662.17 3892.8 2589.47 3892.29 2514.76C3891.81 2440.81 3891.26 2366.79 3899.74 2293.25C3905.93 2239.77 3921.05 2186.44 3938.69 2135.72C3955.16 2088.29 3977.57 2037.75 4018.21 2006.24C4033.99 1994.02 4030.98 1967.32 4018.21 1954.56C4002.81 1939.15 3982.27 1942.38 3966.53 1954.56Z" fill="#ECC900"/>
<path fill-rule="evenodd" clip-rule="evenodd" d="M2243.74 1907.48C2306.44 1822.9 2390.63 1773.58 2478.86 1783.22C2567.84 1792.97 2669.12 1869.48 2704.29 1987.09C2711.92 2012.59 2696.19 2042.64 2678.77 2049.26C2657.76 2057.26 2641.44 2039.4 2633.81 2013.96C2621.71 1973.42 2586.21 1942.64 2560.06 1921.28C2533.43 1899.56 2502.79 1886.93 2472.04 1883.58C2405.46 1876.33 2342.47 1915.5 2295.41 1978.97C2261.67 2024.5 2209.95 1953.07 2243.74 1907.48Z" fill="#ECC900"/>
<path fill-rule="evenodd" clip-rule="evenodd" d="M3449.43 1978.96C3403.18 1916.59 3344.55 1881.02 3279.6 1883.1C3248.76 1884.06 3218.4 1896.95 3191.15 1916.39C3162.88 1936.59 3123.64 1971.65 3111.02 2013.95C3103.4 2039.39 3087.08 2057.26 3066.06 2049.26C3048.65 2042.64 3032.91 2012.59 3040.54 1987.08C3074.98 1871.94 3172.41 1797.09 3259.18 1784.2C3349.5 1770.75 3436.81 1820.74 3501.1 1907.46C3534.87 1953.05 3483.17 2024.5 3449.43 1978.96Z" fill="#ECC900"/>
<path fill-rule="evenodd" clip-rule="evenodd" d="M2758.86 2327C2799.76 2363.86 2844 2393.06 2899.94 2398.26C2959.18 2403.8 3010.89 2361.77 3052.56 2325.38C3088.14 2294.35 3036.24 2242.85 3000.88 2273.7C2974.36 2296.88 2943.99 2324.03 2907.09 2325.38C2870.15 2326.78 2836.22 2298.46 2810.55 2275.32C2775.66 2243.88 2723.8 2295.38 2758.86 2327Z" fill="#ECC900"/>
<path fill-rule="evenodd" clip-rule="evenodd" d="M2698.19 2662.28C2730.4 2637.01 2765.24 2613.28 2805.52 2603.56C2845.61 2593.84 2873.63 2626.11 2911.93 2628.35C2951.98 2630.66 2984.01 2602.09 3023.07 2600.07C3066.24 2597.87 3102.45 2649.81 3136.74 2670.16C3163.81 2686.23 3188.32 2644.12 3161.32 2628.09C3120.79 2604.03 3092.54 2564.79 3044.67 2553.56C3023.03 2548.46 3000.36 2552.83 2979.64 2559.58C2959.03 2566.33 2935.62 2583.05 2912.95 2579.68C2892.49 2576.63 2874.66 2562.66 2854.96 2556.68C2832.51 2549.89 2807.72 2552.86 2785.42 2558.29C2739.9 2569.3 2699.88 2599.45 2663.75 2627.84C2639.06 2647.24 2673.8 2681.5 2698.19 2662.28Z" fill="#ECC900"/>
<path fill-rule="evenodd" clip-rule="evenodd" d="M2651.53 2663.49C2699.66 2737.4 2800.2 2785.7 2885.26 2798.54C2997.06 2815.41 3095.73 2760.51 3165.83 2676.07C3185.78 2652.12 3151.49 2617.46 3131.39 2641.63C3071.89 2713.26 2995.05 2760.51 2899.75 2751.67C2858.56 2747.85 2819.13 2730.76 2782.96 2711.65C2749.43 2693.93 2714.66 2671.23 2693.64 2638.91C2676.55 2612.69 2634.37 2637.08 2651.53 2663.49Z" fill="#ECC900"/>
<path fill-rule="evenodd" clip-rule="evenodd" d="M2683.34 2663.42C2717.23 2673.98 2753.58 2678.64 2788.9 2681.35C2810.62 2683 2832.33 2682.05 2853.94 2684.98C2872.57 2687.51 2890.1 2695.4 2908.33 2699.73C2940.72 2707.43 2968.89 2689.68 2999.63 2682.78C3019.07 2678.45 3039.17 2679.99 3058.83 2677.06C3081.5 2673.69 3103.84 2668.18 3126.69 2665.87C3142.17 2664.3 3142.32 2639.9 3126.69 2641.52C3088.36 2645.41 3050.65 2652.56 3012.25 2656.34C2976.41 2659.89 2943.95 2683.15 2907.78 2674.57C2891.79 2670.75 2876.68 2664.52 2860.43 2661.51C2842.57 2658.17 2824.11 2658.21 2806.03 2657.73C2767.19 2656.63 2727.02 2651.53 2689.83 2639.9C2674.79 2635.21 2668.41 2658.76 2683.34 2663.42Z" fill="#ECC900"/>
<path fill-rule="evenodd" clip-rule="evenodd" d="M3049.96 410.622C3034.29 512.81 3050.8 611.572 3099.88 702.708C3146.87 789.949 3219.57 862.071 3295.53 924.271C3374.83 989.178 3460.92 1045.07 3546.9 1100.56C3637.17 1158.82 3729.24 1215.73 3801.06 1296.96C3824.72 1323.68 3844.64 1353.27 3862.54 1384.09C3886.2 1424.83 3949.36 1388.04 3925.66 1347.19C3812.4 1151.98 3600.38 1056.23 3423.03 930.033C3271.87 822.443 3112.13 677.011 3116.42 476.109C3116.75 460.711 3118.11 445.28 3120.46 430.059C3123.46 410.38 3145.33 317.237 3124.5 311.5C3107 306.68 3053 390.904 3049.96 410.622Z" fill="#ECC900"/>
<path fill-rule="evenodd" clip-rule="evenodd" d="M3871.53 1346.29C3831.03 1382.64 3831.87 1442.43 3861.07 1485.49C3893.79 1533.77 3954.39 1550.39 4005.12 1519.72C4107.45 1457.85 4007.28 1299.64 3903.88 1340.14C3885.35 1347.41 3872.66 1364.37 3878.35 1385.1C3883.23 1402.78 3904.72 1417.89 3923.32 1410.62C3942.36 1403.16 3953.07 1406.86 3966.71 1422.17C3977.61 1434.4 3976.8 1448.09 3968.55 1456.34C3939.24 1485.64 3894.05 1424.17 3923.17 1397.97C3958.31 1366.41 3906.45 1314.9 3871.53 1346.29Z" fill="#ECC900"/>
<path fill-rule="evenodd" clip-rule="evenodd" d="M3340.8 1325.73C3442.84 1268.86 3558.79 1269.65 3658.01 1332.22C3655.55 1313.08 3653.06 1293.96 3650.6 1274.83C3590.15 1338.68 3442.55 1371.41 3383.16 1288.72C3371.57 1272.57 3351.54 1264.83 3333.13 1275.61C3317.17 1284.97 3308.37 1309.39 3320.03 1325.61C3407.19 1446.93 3606.14 1428.07 3702.28 1326.5C3718.86 1309.02 3715.12 1281.88 3694.91 1269.11C3573.75 1192.73 3428.02 1193.46 3303.89 1262.61C3262.74 1285.55 3299.57 1348.69 3340.8 1325.73Z" fill="#ECC900"/>
<path fill-rule="evenodd" clip-rule="evenodd" d="M3076.12 171.573C3106.26 522.554 3501.37 743.211 3797.78 943.555C4022.38 1095.37 4255.74 1273.84 4304.95 1525.72C4312.58 1564.76 4382.99 1548.15 4375.43 1509.39C4337.22 1313.96 4185.04 1147.76 4014.9 1017.58C3862.53 901.051 3693.6 801.048 3538.23 687.46C3354.62 553.216 3167.64 386.45 3149.2 171.573C3145.82 132.277 3072.71 132.008 3076.12 171.573Z" fill="#ECC900"/>
<path fill-rule="evenodd" clip-rule="evenodd" d="M4219.59 1251.66C4081.19 1363.82 4088.57 1554.8 4124.99 1712.47C4162.55 1875.02 4236.09 2024.91 4297.9 2178.85C4309.05 2206.65 4347.57 2217.47 4364.7 2187.58C4434.5 2065.88 4479.25 1924.77 4509 1788.35C4539.96 1646.32 4563.8 1467.73 4483.39 1336.92C4436.3 1260.27 4354.76 1224.32 4267.38 1219.03C4220.25 1216.17 4220.54 1289.29 4267.38 1292.12C4300.06 1294.1 4332.82 1301.86 4359.63 1316.32C4384.36 1329.66 4404.02 1349.05 4418.32 1370.69C4453.79 1424.46 4462.34 1491.64 4463.04 1557.29C4464.76 1714.34 4419.24 1873.49 4362.9 2018.75C4345.92 2062.47 4326.62 2107.03 4301.57 2150.72C4323.83 2153.61 4346.1 2156.55 4368.36 2159.45C4309.6 2013.13 4241.41 1870.96 4201.54 1717.74C4165.37 1578.61 4146.7 1404.3 4271.27 1303.34C4286.79 1290.78 4284.26 1264.63 4271.27 1251.66C4256.09 1236.49 4235.07 1239.13 4219.59 1251.66Z" fill="#ECC900"/>
<path fill-rule="evenodd" clip-rule="evenodd" d="M3331.81 437.006C3331.67 557.346 3329.1 678.471 3395.27 784.348C3420.18 824.2 3483.45 787.543 3458.4 747.446C3399.34 652.964 3404.77 544.196 3404.92 437.006C3404.99 389.87 3331.89 389.881 3331.81 437.006Z" fill="#ECC900"/>
<path fill-rule="evenodd" clip-rule="evenodd" d="M3293.66 261.096C3450.59 413.914 3658.52 476.739 3855.59 532.352C3958.72 561.449 4062.41 588.316 4164.17 623.218C4268.31 658.941 4365.38 706.196 4456.67 773.455C4534.16 830.541 4604.37 898.841 4671.91 969.84C4702.51 1001.99 4748.58 950.42 4717.88 918.177C4628.22 823.93 4533.21 735.839 4426.52 666.843C4335.13 607.74 4234.68 569.303 4133.63 536.913C3931.48 472.093 3719.6 435.094 3526.51 338.519C3459.6 305.062 3395.13 263.457 3339.63 209.429C3308.11 178.729 3261.94 230.187 3293.66 261.096Z" fill="#ECC900"/>
<path fill-rule="evenodd" clip-rule="evenodd" d="M5281.59 1833.81C5138.49 1878.23 5106.16 1987.82 5119.88 2086.6C5133.91 2187.41 5183.31 2285.15 5242.08 2377.22C5255.04 2397.5 5295.96 2388.93 5304.37 2371.59C5378.88 2218.26 5640.69 1932.3 5301.02 1840.89C5283.68 1836.23 5263.66 1845.93 5259.11 1857.41C5253.81 1870.81 5265.61 1881.86 5282.92 1886.52C5339.1 1901.64 5380.56 1929.46 5395.92 1969.33C5412 2010.99 5399.48 2057.59 5383.71 2099.09C5349.33 2189.57 5281.49 2270.78 5238.66 2359.01C5259.42 2357.13 5280.19 2355.23 5300.95 2353.35C5250.36 2274.13 5205.51 2185.51 5189.77 2097.45C5181.7 2052.21 5181.12 2005.38 5201.16 1961.58C5219.64 1921.21 5260.83 1891.8 5316.01 1874.67C5332.97 1869.41 5336.84 1852.51 5328.22 1842.3C5318.09 1830.29 5298.56 1828.55 5281.59 1833.81Z" fill="#ECC900"/>
<path fill-rule="evenodd" clip-rule="evenodd" d="M4892.89 1925.71C4996.78 1875.33 5074.3 1797.34 5126.23 1711.52C5178.83 1624.59 5207.82 1526.81 5202.34 1430.38C5200.8 1403.26 5146.95 1403.15 5148.49 1430.38C5153.49 1518.21 5128.52 1606.75 5081.94 1686.5C5034.71 1767.35 4963.09 1842.03 4865.73 1889.26C4836.26 1903.55 4863.28 1940.08 4892.89 1925.71Z" fill="#ECC900"/>
<path fill-rule="evenodd" clip-rule="evenodd" d="M5139.53 1578.46C5066.43 1558.21 4990.91 1558.26 4920.48 1587.97C4857.02 1614.75 4807.61 1663.04 4766.6 1717.2C4682.75 1827.84 4639.25 1968.28 4604.88 2100.98C4600.37 2118.33 4610.46 2143.09 4630.41 2145.91C4780.69 2167.22 4929.58 2098.56 5041.78 2002.5C5155.27 1905.31 5237.87 1756.19 5201.6 1603.98C5190.67 1558.15 5120.2 1577.59 5131.1 1623.41C5160.99 1748.75 5084.7 1866.32 4994.9 1946.6C4905.92 2026.19 4772.51 2092.84 4649.81 2075.45C4658.32 2090.42 4666.83 2105.42 4675.34 2120.38C4729.04 1913.11 4840.96 1571.64 5120.09 1648.94C5165.61 1661.54 5184.87 1591.02 5139.53 1578.46Z" fill="#ECC900"/>
<path fill-rule="evenodd" clip-rule="evenodd" d="M3934.62 680.514C4251.98 840.17 4501.85 1106.81 4652.42 1427.5C4672.41 1470.14 4735.43 1433.01 4715.51 1390.61C4560.24 1059.86 4298.75 782.03 3971.52 617.404C3929.52 596.28 3892.51 659.335 3934.62 680.514Z" fill="#ECC900"/>
<path fill-rule="evenodd" clip-rule="evenodd" d="M4698.6 1518.68C4698.6 1519.19 4698.52 1519.69 4698.45 1520.19C4698.89 1516.95 4699.33 1513.71 4699.77 1510.48C4699.7 1510.91 4699.59 1511.34 4699.44 1511.76C4700.65 1508.85 4701.9 1505.94 4703.11 1503.03C4702.85 1503.6 4702.59 1504.08 4702.23 1504.58C4704.14 1502.11 4706.04 1499.64 4707.95 1497.18C4707.69 1497.48 4707.44 1497.75 4707.11 1497.99C4709.56 1496.08 4712.06 1494.17 4714.52 1492.27C4714.04 1492.63 4713.53 1492.92 4712.98 1493.19C4715.91 1491.96 4718.81 1490.73 4721.74 1489.5C4720.46 1490.01 4719.17 1490.29 4717.82 1490.48C4721.08 1490.05 4724.31 1489.62 4727.54 1489.18C4725.23 1489.44 4722.84 1489.44 4720.49 1489.45C4700.58 1489.46 4683.96 1506.06 4683.96 1526C4683.96 1545.91 4700.58 1562.55 4720.49 1562.54C4727.32 1562.54 4734.84 1562.55 4741.15 1559.99C4743.42 1559.07 4748.52 1557.47 4751.42 1555.39C4759.56 1549.48 4759.38 1549.57 4765.32 1541.47C4769.94 1535.18 4771.41 1526.21 4771.66 1518.68C4772.43 1498.77 4754.46 1482.14 4735.13 1482.14C4725.48 1482.14 4716.09 1486.02 4709.27 1492.84C4702.26 1499.87 4698.96 1508.87 4698.6 1518.68Z" fill="#ECC900"/>
<path fill-rule="evenodd" clip-rule="evenodd" d="M5114.64 2108.99C5063.35 2353.66 5006.01 2496.34 4904.3 2724.8C4852.67 2840.74 4789.11 2950.86 4713.91 3052.3C4635.59 3157.96 4544.76 3261.99 4441.62 3342.52C4425.35 3355.2 4416.88 3375.56 4428.14 3395.37C4437.55 3411.93 4463.12 3421.97 4479.46 3409.26C4586.9 3325.39 4678.81 3221.82 4762.18 3113.21C4842.99 3007.94 4910.28 2892.97 4965.6 2771.53C5073.26 2535.2 5133.7 2383.59 5187.02 2129.5C5197.22 2080.95 5124.88 2060.29 5114.64 2108.99Z" fill="#ECC900"/>
<path fill-rule="evenodd" clip-rule="evenodd" d="M4720.49 3053.5C4597.28 3047.37 4480.53 3089.7 4392.75 3176.88C4303.47 3265.57 4254.18 3389.59 4232.13 3511.54C4228.9 3529.19 4236.72 3553.39 4257.62 3556.48C4392.5 3576.54 4539.26 3505.23 4643.39 3425.2C4751.16 3342.42 4848.36 3210.23 4781.31 3071.62C4760.77 3029.18 4697.75 3066.26 4718.18 3108.48C4767.37 3210.15 4671.75 3314.03 4592.88 3372.38C4542.37 3409.76 4485.92 3440.13 4426.79 3461.37C4399.54 3471.16 4371.44 3478.68 4342.94 3483.67C4331.65 3485.65 4320.13 3486.53 4307.55 3487.01C4301.97 3487.23 4296.4 3487.12 4290.82 3486.93C4287.96 3486.86 4272.74 3485.35 4277.06 3486.02C4285.57 3500.98 4294.08 3515.98 4302.59 3530.98C4321.96 3423.95 4361.32 3317.99 4436.18 3237.15C4510.46 3156.93 4612.43 3121.21 4720.49 3126.6C4767.63 3128.95 4767.41 3055.84 4720.49 3053.5Z" fill="#ECC900"/>
<path fill-rule="evenodd" clip-rule="evenodd" d="M5195.58 2220.3C5208.79 2335.84 5207.47 2452.44 5189.86 2567.43C5172.22 2682.56 5139.53 2794.91 5101.86 2904.91C5086.57 2949.62 5157.18 2968.69 5172.36 2924.35C5250.38 2696.39 5296.27 2461.68 5268.69 2220.3C5266.41 2200.53 5253.76 2183.76 5232.15 2183.76C5213.92 2183.76 5193.31 2200.49 5195.58 2220.3Z" fill="#ECC900"/>
<path fill-rule="evenodd" clip-rule="evenodd" d="M5120.09 2872.08C5058.36 2881.91 5011.7 2930.07 5004.58 2991.73C4998.5 3044.33 5040.53 3098.5 5092.1 3104.37C5136.93 3109.47 5169.72 3064.61 5184.06 3028.7C5202.25 2983.15 5188.35 2930.88 5155.63 2896.11C5123.28 2861.7 5071.71 2913.49 5103.95 2947.79C5118.22 2962.94 5121.19 2981.42 5116.42 3000.42C5114.77 3007.03 5110.55 3016.45 5107.77 3020.05C5106.59 3021.55 5097.72 3030.06 5100.54 3028.01C5094.12 3032.74 5096.98 3030.61 5092.76 3031.75C5100.06 3029.8 5087.63 3029.88 5094.85 3031.42C5097.86 3032.08 5092.76 3030.24 5090.6 3028.19C5080.77 3018.84 5077.32 3004.75 5077.65 2991.73C5078.46 2962.2 5115.76 2946.36 5139.53 2942.58C5159.23 2939.43 5169.87 2915.18 5165.06 2897.61C5159.34 2876.85 5139.75 2868.97 5120.09 2872.08Z" fill="#ECC900"/>
<path fill-rule="evenodd" clip-rule="evenodd" d="M5215.2 2487.25C5278.18 2586.21 5321.61 2693.9 5350.37 2807.42C5361.96 2853.08 5432.43 2833.68 5420.87 2787.98C5390.68 2668.84 5344.43 2554.22 5278.29 2450.35C5253.1 2410.73 5189.78 2447.38 5215.2 2487.25Z" fill="#ECC900"/>
<path fill-rule="evenodd" clip-rule="evenodd" d="M5535.77 2494.99C5547.53 2549.51 5549.45 2604.67 5542.17 2659.43C5534.96 2713.93 5517.76 2770.7 5474.85 2820.5C5454.89 2843.68 5518.01 2864 5538.09 2840.68C5583.71 2787.74 5603.45 2730.03 5613.49 2672.12C5623.71 2613.33 5621.65 2553.6 5609.04 2494.99C5606.69 2484.16 5594.15 2475 5572.39 2475C5554.19 2475 5533.42 2484.14 5535.77 2494.99Z" fill="#ECC900"/>
<path fill-rule="evenodd" clip-rule="evenodd" d="M5025.16 2413.82C4962.77 2494.62 4851.44 2528.84 4754.64 2543.18C4734.91 2546.12 4724.34 2570.73 4729.11 2588.15C4734.87 2609.09 4754.39 2616.61 4774.08 2613.68C4892.96 2596.04 5013.09 2548.06 5088.25 2450.71C5100.47 2434.91 5090.71 2409.82 5075.16 2400.72C5056.3 2389.68 5037.3 2398.08 5025.16 2413.82Z" fill="#ECC900"/>
<path fill-rule="evenodd" clip-rule="evenodd" d="M4921.76 2494.14C4764.48 2309.35 4495.98 2531.52 4466.01 2714.91C4462.71 2735.12 4471 2753.39 4491.54 2759.84C4574.03 2785.81 4668.81 2801.26 4751.35 2767.07C4837.07 2731.53 4885.19 2652.82 4909.25 2566.22C4921.87 2520.73 4851.34 2501.44 4838.75 2546.81C4821.04 2610.6 4787.84 2675.12 4722.55 2700.31C4654.55 2726.54 4577.96 2710.44 4510.94 2689.38C4519.45 2704.35 4527.96 2719.35 4536.47 2734.32C4557.49 2605.87 4750.57 2405.45 4870.08 2545.82C4900.67 2581.73 4952.13 2529.79 4921.76 2494.14Z" fill="#ECC900"/>
<path fill-rule="evenodd" clip-rule="evenodd" d="M4281.98 2424.97C4290.78 2579.2 4268.74 2730.65 4214.08 2875.27C4157.63 3024.7 4068.31 3169 3949.18 3276.14C3914.04 3307.72 3965.9 3359.25 4000.82 3327.82C4126.31 3215.03 4215.92 3065.53 4278.57 2910.12C4340.41 2756.62 4364.47 2589.8 4355.08 2424.97C4352.4 2378.13 4279.3 2377.83 4281.98 2424.97Z" fill="#ECC900"/>
<path fill-rule="evenodd" clip-rule="evenodd" d="M4272.33 2662.32C4238.11 2732.45 4176.38 2782.92 4110.32 2821.94C4043.12 2861.67 3965.32 2891.67 3887.3 2900.03C3867.49 2902.12 3850.77 2915.03 3850.77 2936.56C3850.77 2954.87 3867.46 2975.22 3887.3 2973.1C3976.91 2963.49 4062.78 2932.64 4141.16 2888.55C4219.62 2844.43 4295.33 2781.38 4335.46 2699.21C4356.04 2657.03 4293.02 2619.95 4272.33 2662.32Z" fill="#ECC900"/>
<path fill-rule="evenodd" clip-rule="evenodd" d="M4504.63 2267.54C4502.21 2270 4499.75 2272.42 4497.33 2274.88C4483.24 2288.96 4483.24 2312.47 4497.33 2326.56C4511.41 2340.64 4534.93 2340.64 4549.01 2326.56C4551.43 2324.1 4553.89 2321.68 4556.31 2319.26C4570.4 2305.17 4570.4 2281.66 4556.31 2267.54C4542.23 2253.49 4518.71 2253.49 4504.63 2267.54Z" fill="#ECC900"/>
<path fill-rule="evenodd" clip-rule="evenodd" d="M5107.88 1401.75C5155.01 1401.75 5155.01 1328.66 5107.88 1328.66C5060.74 1328.66 5060.74 1401.75 5107.88 1401.75Z" fill="#ECC900"/>
<path fill-rule="evenodd" clip-rule="evenodd" d="M1628.84 1920.67C1628.84 1918.21 1628.84 1915.79 1628.84 1913.33C1628.84 1893.43 1612.22 1876.81 1592.29 1876.81C1572.37 1876.81 1555.75 1893.43 1555.75 1913.33C1555.75 1915.79 1555.75 1918.21 1555.75 1920.67C1555.75 1940.58 1572.37 1957.2 1592.29 1957.2C1612.22 1957.2 1628.84 1940.58 1628.84 1920.67Z" fill="#ECC900"/>
<path fill-rule="evenodd" clip-rule="evenodd" d="M1628.84 1920.67C1628.84 1918.21 1628.84 1915.79 1628.84 1913.33C1628.84 1893.43 1612.22 1876.81 1592.29 1876.81C1572.37 1876.81 1555.75 1893.43 1555.75 1913.33C1555.75 1915.79 1555.75 1918.21 1555.75 1920.67C1555.75 1940.58 1572.37 1957.2 1592.29 1957.2C1612.22 1957.2 1628.84 1940.58 1628.84 1920.67Z" fill="#ECC900"/>
<path fill-rule="evenodd" clip-rule="evenodd" d="M460.093 2109.86C460.093 2107.4 460.093 2104.98 460.093 2102.52C460.093 2082.63 443.466 2066 423.545 2066C403.616 2066 387 2082.63 387 2102.52C387 2104.98 387 2107.4 387 2109.86C387 2129.78 403.616 2146.39 423.545 2146.39C443.466 2146.39 460.093 2129.78 460.093 2109.86Z" fill="#ECC900"/>
<path fill-rule="evenodd" clip-rule="evenodd" d="M460.093 2109.86C460.093 2107.4 460.093 2104.98 460.093 2102.52C460.093 2082.63 443.466 2066 423.545 2066C403.616 2066 387 2082.63 387 2102.52C387 2104.98 387 2107.4 387 2109.86C387 2129.78 403.616 2146.39 423.545 2146.39C443.466 2146.39 460.093 2129.78 460.093 2109.86Z" fill="#ECC900"/>
<path fill-rule="evenodd" clip-rule="evenodd" d="M1471.09 1951.86C1471.09 1949.4 1471.09 1946.98 1471.09 1944.52C1471.09 1924.63 1454.47 1908 1434.54 1908C1414.62 1908 1398 1924.63 1398 1944.52C1398 1946.98 1398 1949.4 1398 1951.86C1398 1971.78 1414.62 1988.39 1434.54 1988.39C1454.47 1988.39 1471.09 1971.78 1471.09 1951.86Z" fill="#ECC900"/>
<path fill-rule="evenodd" clip-rule="evenodd" d="M1471.09 1951.86C1471.09 1949.4 1471.09 1946.98 1471.09 1944.52C1471.09 1924.63 1454.47 1908 1434.54 1908C1414.62 1908 1398 1924.63 1398 1944.52C1398 1946.98 1398 1949.4 1398 1951.86C1398 1971.78 1414.62 1988.39 1434.54 1988.39C1454.47 1988.39 1471.09 1971.78 1471.09 1951.86Z" fill="#ECC900"/>
<path fill-rule="evenodd" clip-rule="evenodd" d="M1536.09 1730.86C1536.09 1728.4 1536.09 1725.98 1536.09 1723.52C1536.09 1703.63 1519.47 1687 1499.54 1687C1479.62 1687 1463 1703.63 1463 1723.52C1463 1725.98 1463 1728.4 1463 1730.86C1463 1750.78 1479.62 1767.39 1499.54 1767.39C1519.47 1767.39 1536.09 1750.78 1536.09 1730.86Z" fill="#ECC900"/>
<path fill-rule="evenodd" clip-rule="evenodd" d="M1536.09 1730.86C1536.09 1728.4 1536.09 1725.98 1536.09 1723.52C1536.09 1703.63 1519.47 1687 1499.54 1687C1479.62 1687 1463 1703.63 1463 1723.52C1463 1725.98 1463 1728.4 1463 1730.86C1463 1750.78 1479.62 1767.39 1499.54 1767.39C1519.47 1767.39 1536.09 1750.78 1536.09 1730.86Z" fill="#ECC900"/>
<path fill-rule="evenodd" clip-rule="evenodd" d="M739.093 1920.86C739.093 1918.4 739.093 1915.98 739.093 1913.52C739.093 1893.63 722.466 1877 702.545 1877C682.616 1877 666 1893.63 666 1913.52C666 1915.98 666 1918.4 666 1920.86C666 1940.78 682.616 1957.39 702.545 1957.39C722.466 1957.39 739.093 1940.78 739.093 1920.86Z" fill="#ECC900"/>
<path fill-rule="evenodd" clip-rule="evenodd" d="M739.093 1920.86C739.093 1918.4 739.093 1915.98 739.093 1913.52C739.093 1893.63 722.466 1877 702.545 1877C682.616 1877 666 1893.63 666 1913.52C666 1915.98 666 1918.4 666 1920.86C666 1940.78 682.616 1957.39 702.545 1957.39C722.466 1957.39 739.093 1940.78 739.093 1920.86Z" fill="#ECC900"/>
<path fill-rule="evenodd" clip-rule="evenodd" d="M757.093 1730.86C757.093 1728.4 757.093 1725.98 757.093 1723.52C757.093 1703.63 740.466 1687 720.545 1687C700.616 1687 684 1703.63 684 1723.52C684 1725.98 684 1728.4 684 1730.86C684 1750.78 700.616 1767.39 720.545 1767.39C740.466 1767.39 757.093 1750.78 757.093 1730.86Z" fill="#ECC900"/>
<path fill-rule="evenodd" clip-rule="evenodd" d="M757.093 1730.86C757.093 1728.4 757.093 1725.98 757.093 1723.52C757.093 1703.63 740.466 1687 720.545 1687C700.616 1687 684 1703.63 684 1723.52C684 1725.98 684 1728.4 684 1730.86C684 1750.78 700.616 1767.39 720.545 1767.39C740.466 1767.39 757.093 1750.78 757.093 1730.86Z" fill="#ECC900"/>
<path fill-rule="evenodd" clip-rule="evenodd" d="M1285.1 761.764C1361.55 734.2 1441.68 714.681 1520.35 692.444C1572.49 677.695 1550.15 607.188 1497.58 622.044C1411.7 646.329 1325.33 668.635 1241.89 698.727C1220.39 706.486 1215.89 733.178 1226.53 748.667C1239.44 767.457 1263.61 769.512 1285.1 761.764Z" fill="#ECC900"/>
<path fill-rule="evenodd" clip-rule="evenodd" d="M1183.14 1489.57C982.732 1459.81 794.045 1582.86 650.664 1709.69C575.268 1776.38 507.622 1851.92 448.449 1933.32C379.273 2028.43 338.488 2137.48 295.18 2246.01C287.781 2264.53 303.106 2286.1 320.702 2290.94C341.533 2296.7 358.281 2283.9 365.665 2265.41C405.999 2164.36 444.667 2064.26 508.066 1975.06C561.164 1900.36 624.317 1832.46 691.923 1770.74C762.551 1706.26 840.86 1649.61 926.949 1607.6C998.769 1572.53 1083.24 1548.1 1163.7 1560.05C1183.39 1562.97 1202.91 1555.45 1208.67 1534.52C1213.46 1517.1 1202.88 1492.5 1183.14 1489.57Z" fill="#ECC900"/>
<path fill-rule="evenodd" clip-rule="evenodd" d="M423.766 2053.48C134.929 2084.47 175.061 2499.57 247.212 2694.23C256.33 2718.84 287.989 2731.75 308.296 2710.36C389.389 2624.9 451.533 2516.41 489.013 2405.12C526.39 2294.09 531.955 2156.66 434.99 2073.95C399.351 2043.54 347.397 2095 383.311 2125.63C464.646 2195.02 445.84 2307.34 414.5 2397.46C381.557 2492.16 325.759 2585.8 256.617 2658.68C276.97 2664.04 297.335 2669.43 317.697 2674.79C280.184 2573.63 265.335 2460.62 271.578 2353.15C277.385 2253.34 313.379 2138.43 423.766 2126.58C443.566 2124.45 460.314 2111.58 460.314 2090.05C460.314 2071.71 443.617 2051.35 423.766 2053.48Z" fill="#ECC900"/>
<path fill-rule="evenodd" clip-rule="evenodd" d="M694.407 1689C630.033 1761.78 601.899 1877.11 659.454 1962.3C670.52 1978.69 691.498 1986.1 709.453 1975.43C807.236 1917.22 831.273 1771.9 760.707 1684.13C748.21 1668.58 721.961 1671.19 709.024 1684.13C693.809 1699.35 696.56 1720.31 709.024 1735.82C750.264 1787.1 726.594 1880.16 672.567 1912.3C689.231 1916.67 705.906 1921.03 722.57 1925.4C683.865 1868.11 702.344 1790.14 746.09 1740.68C777.191 1705.52 725.692 1653.63 694.407 1689Z" fill="#ECC900"/>
<path fill-rule="evenodd" clip-rule="evenodd" d="M1088.15 2669.87C1092.19 2765.79 1125.52 2860.49 1168.66 2945.37C1212.33 3031.27 1276.19 3116.91 1368.37 3153.41C1386.92 3160.75 1408.47 3145.52 1413.32 3127.88C1419.05 3107.12 1406.3 3090.25 1387.8 3082.95C1314.87 3054.05 1266.15 2974.6 1231.78 2908.47C1194.14 2836.06 1164.7 2752.03 1161.24 2669.87C1159.26 2622.92 1086.16 2622.74 1088.15 2669.87Z" fill="#ECC900"/>
<path fill-rule="evenodd" clip-rule="evenodd" d="M1352.58 3113.32C1338.15 3156.6 1347.94 3210.89 1377.33 3245.8C1413.99 3289.42 1476.26 3277.79 1510.36 3237.07C1545.95 3194.6 1536.07 3137.6 1503.87 3096.78C1468 3051.3 1406.78 3057.35 1366.86 3092.34C1331.34 3123.44 1383.25 3174.94 1418.54 3144.02C1419.21 3143.43 1427.6 3137.67 1426.48 3138.15C1432.06 3135.88 1436.77 3136.46 1433.84 3135.99C1441.33 3137.2 1438.34 3136.87 1442.31 3139.11C1445.45 3140.87 1447.41 3142.99 1452.19 3148.46C1460.78 3158.29 1463.42 3179.75 1455.98 3188.62C1452.58 3192.69 1448.53 3195.55 1444.13 3198.38C1438.38 3202.08 1439.37 3201.39 1435.5 3201.46C1439.94 3201.35 1433.86 3199.88 1436.48 3201.97C1430.26 3196.98 1432.6 3199.11 1428.34 3192.03C1418.03 3174.87 1416.65 3151.98 1423.07 3132.76C1438.03 3087.9 1367.43 3068.86 1352.58 3113.32Z" fill="#ECC900"/>
<path fill-rule="evenodd" clip-rule="evenodd" d="M476.576 3321.69C366.054 3276.54 352.299 3155.61 368.952 3050.97C386.962 2937.85 431.72 2828.73 483.802 2727.31C462.759 2727.31 441.726 2727.31 420.682 2727.31C481.81 2816.84 521.326 2923.21 543.246 3028.89C562.364 3121.1 571.853 3255.38 487.397 3320.52C471.657 3332.66 463.243 3351.66 474.284 3370.51C483.388 3386.03 508.47 3395.82 524.29 3383.61C631.21 3301.15 638.597 3163.17 619.182 3039.38C600.193 2918.22 553.143 2791.98 483.802 2690.41C469.31 2669.21 434.063 2664.37 420.682 2690.41C318.135 2890.13 168.611 3274.34 457.143 3392.19C475.619 3399.71 497.293 3384.12 502.102 3366.66C507.861 3345.72 495.004 3329.21 476.576 3321.69Z" fill="#ECC900"/>
<path fill-rule="evenodd" clip-rule="evenodd" d="M5570.37 2841.09C5510.45 3066.24 5412.98 3276.45 5286.07 3465.15C5161.53 3650.4 5008.62 3815.19 4818.04 3915.7C4768.19 3941.97 4811.72 4023.04 4861.31 3996.86C5063.25 3890.37 5221.07 3715.16 5354.44 3520.99C5489.01 3325.07 5590.47 3101.33 5653.07 2866.04C5668.61 2807.74 5585.82 2783.03 5570.37 2841.09Z" fill="#ECC900"/>
<path fill-rule="evenodd" clip-rule="evenodd" d="M5264.28 3509.01C5218.91 3578.67 5128.12 3600.93 5052.23 3618.94C5006.38 3629.8 5025.82 3700.26 5071.67 3689.4C5168.4 3666.48 5270.37 3633.39 5327.41 3545.91C5353.23 3506.3 5289.92 3469.73 5264.28 3509.01Z" fill="#ECC900"/>
<path fill-rule="evenodd" clip-rule="evenodd" d="M5015.66 3220.5C5015.66 3218.88 5015.66 3217.27 5015.66 3215.62C5015.66 3195.7 4999.05 3179.09 4979.13 3179.09C4959.21 3179.09 4942.56 3195.7 4942.56 3215.62C4942.56 3217.27 4942.56 3218.88 4942.56 3220.5C4942.56 3240.41 4959.21 3257.03 4979.13 3257.03C4999.05 3257.03 5015.66 3240.41 5015.66 3220.5Z" fill="#ECC900"/>
<path fill-rule="evenodd" clip-rule="evenodd" d="M5471.27 2511.53C5518.4 2511.53 5518.4 2438.43 5471.27 2438.43C5424.13 2438.43 5424.13 2511.53 5471.27 2511.53Z" fill="#ECC900"/>
<path fill-rule="evenodd" clip-rule="evenodd" d="M866.431 1317.72C869.685 1317.72 872.931 1317.72 876.177 1317.72C896.095 1317.72 912.718 1301.1 912.718 1281.18C912.718 1261.25 896.095 1244.63 876.177 1244.63C872.931 1244.63 869.685 1244.63 866.431 1244.63C846.51 1244.63 829.883 1261.25 829.883 1281.18C829.883 1301.1 846.51 1317.72 866.431 1317.72Z" fill="#ECC900"/>
<path fill-rule="evenodd" clip-rule="evenodd" d="M4002.11 1709.97C4002.11 1706.72 4002.11 1703.48 4002.11 1700.23C4002.11 1680.31 3985.49 1663.68 3965.57 1663.68C3945.66 1663.68 3929 1680.31 3929 1700.23C3929 1703.48 3929 1706.72 3929 1709.97C3929 1729.89 3945.66 1746.51 3965.57 1746.51C3985.49 1746.51 4002.11 1729.89 4002.11 1709.97Z" fill="#ECC900"/>
<path fill-rule="evenodd" clip-rule="evenodd" d="M3663.44 937.655C3710.61 937.655 3710.61 864.562 3663.44 864.562C3616.31 864.562 3616.31 937.655 3663.44 937.655Z" fill="#ECC900"/>
<path fill-rule="evenodd" clip-rule="evenodd" d="M2637.7 452.825C2637.7 449.575 2637.7 446.333 2637.7 443.079C2637.7 423.159 2621.09 406.536 2601.17 406.536C2581.25 406.536 2564.64 423.159 2564.64 443.079C2564.64 446.333 2564.64 449.575 2564.64 452.825C2564.64 472.749 2581.25 489.368 2601.17 489.368C2621.09 489.368 2637.7 472.749 2637.7 452.825Z" fill="#ECC900"/>
<path fill-rule="evenodd" clip-rule="evenodd" d="M2454.98 898.673C2502.12 898.673 2502.12 825.583 2454.98 825.583C2407.85 825.583 2407.85 898.673 2454.98 898.673Z" fill="#ECC900"/>
<path fill-rule="evenodd" clip-rule="evenodd" d="M2295.09 4042.2H2880.14V4640H2508.05C2390.44 4640 2295.09 4551.57 2295.09 4442.49V4042.2Z" fill="#0E1F2A" stroke="white" stroke-width="30"/>
<path fill-rule="evenodd" clip-rule="evenodd" d="M2970.34 3968.95V3655.12H3479.71C3573.21 3655.12 3649 3725.38 3649 3812.04C3649 3898.69 3573.21 3968.95 3479.71 3968.95H2970.34Z" fill="#0E1F2A" stroke="white" stroke-width="30"/>
<path fill-rule="evenodd" clip-rule="evenodd" d="M2880.15 3968.95V3655.12H2370.41C2276.85 3655.12 2201 3725.38 2201 3812.04C2201 3898.69 2276.85 3968.95 2370.41 3968.95H2880.15Z" fill="#0E1F2A" stroke="white" stroke-width="30"/>
<path fill-rule="evenodd" clip-rule="evenodd" d="M3554.91 4042.2H2970.34V4640H3342.12C3459.63 4640 3554.91 4551.57 3554.91 4442.49V4042.2Z" fill="#0E1F2A" stroke="white" stroke-width="30"/>
<path d="M3273.54 3347.11C3337.07 3330.58 3407.33 3338.01 3464.78 3369.43C3471.34 3373.02 3471.38 3381.18 3464.78 3384.79C3392.61 3424.26 3299.2 3426.26 3224.34 3388.69L3133.25 3465.7C3216.93 3440.46 3311.4 3448.76 3387.94 3490.63C3394.51 3494.22 3394.54 3502.39 3387.94 3505.99C3295.09 3556.77 3175.56 3558.3 3080.92 3509.91L2980.08 3595.16C3082.96 3561.16 3200.89 3570.12 3295.85 3622.06C3302.42 3625.65 3302.45 3633.82 3295.85 3637.42C3182.75 3699.29 3038.33 3699.74 2925.42 3641.36C2845.56 3708.86 2849.97 3706.67 2843.69 3706.67C2834.13 3706.67 2829.2 3696.82 2836.03 3691.05L2910.12 3628.42C2840.57 3532.32 2842.12 3410.25 2914.79 3315.31C2919.05 3309.74 2928.7 3309.77 2932.97 3315.31C2994.4 3395.59 3005 3495.25 2964.78 3582.22L3065.62 3496.98C3008.51 3417.17 3010.06 3316.13 3070.28 3237.48C3074.54 3231.91 3084.19 3231.91 3088.45 3237.48C3137.98 3302.18 3147.8 3382.03 3117.94 3452.76L3209.04 3375.76C3165.01 3313.06 3166.55 3234.09 3213.66 3172.54C3217.92 3166.96 3227.57 3166.96 3231.84 3172.54C3269.02 3221.09 3277.79 3280.47 3258.24 3334.17L3295.23 3302.91C3315.17 3230.3 3383.22 3173.58 3469.65 3157.92C3477.3 3156.54 3484.15 3162.3 3482.5 3168.78C3463.9 3242.16 3396.27 3299.86 3309.83 3316.44L3273.54 3347.11Z" fill="#0E1F2A" stroke="white" stroke-width="30"/>
<path d="M2573.04 3344.25C2509.51 3327.74 2439.26 3335.14 2381.81 3366.55C2375.24 3370.13 2375.21 3378.29 2381.81 3381.89C2453.99 3421.34 2547.38 3423.34 2622.24 3385.8L2713.33 3462.74C2629.66 3437.52 2535.18 3445.82 2458.64 3487.65C2452.08 3491.24 2452.04 3499.4 2458.64 3503C2551.5 3553.74 2671.02 3555.27 2765.66 3506.92L2866.5 3592.1C2763.62 3558.11 2645.69 3567.08 2550.73 3618.96C2544.17 3622.57 2544.13 3630.71 2550.73 3634.31C2663.85 3696.13 2808.25 3696.6 2921.16 3638.26C3001.01 3705.71 2996.62 3703.5 3002.89 3703.5C3012.45 3703.5 3017.39 3693.68 3010.55 3687.9L2936.46 3625.34C3006.01 3529.31 3004.46 3407.34 2931.79 3312.48C2927.53 3306.91 2917.88 3306.94 2913.61 3312.48C2852.18 3392.67 2841.58 3492.27 2881.8 3579.17L2780.96 3494C2838.07 3414.26 2836.52 3313.28 2776.3 3234.69C2772.04 3229.14 2762.39 3229.14 2758.13 3234.69C2708.61 3299.36 2698.78 3379.14 2728.64 3449.81L2637.54 3372.87C2681.59 3310.22 2680.05 3231.32 2632.92 3169.8C2628.66 3164.25 2619.01 3164.25 2614.75 3169.8C2577.56 3218.33 2568.79 3277.66 2588.34 3331.32L2551.35 3300.07C2531.41 3227.53 2463.36 3170.85 2376.94 3155.21C2369.28 3153.82 2362.44 3159.57 2364.09 3166.06C2382.69 3239.38 2450.31 3297.04 2536.75 3313.6L2573.04 3344.25Z" fill="#0E1F2A" stroke="white" stroke-width="30"/>
<path fill-rule="evenodd" clip-rule="evenodd" d="M5620 2999.5C5620 4557.44 4403.55 5829 2892.49 5829C1381.45 5829 165 4557.44 165 2999.5C165 1441.54 1381.45 170 2892.49 170C4403.55 170 5620 1441.54 5620 2999.5Z" stroke="#ECC900" stroke-width="99.0863"/>
<path d="M1470.06 5146C1459.06 5146 1450.56 5143.17 1444.56 5137.5C1438.9 5131.5 1436.06 5123 1436.06 5112V4827.5C1436.06 4816.5 1438.9 4808.17 1444.56 4802.5C1450.56 4796.5 1459.06 4793.5 1470.06 4793.5H1567.06C1626.06 4793.5 1671.56 4808.67 1703.56 4839C1735.9 4869.33 1752.06 4912.83 1752.06 4969.5C1752.06 4997.83 1747.9 5023 1739.56 5045C1731.56 5066.67 1719.56 5085 1703.56 5100C1687.9 5115 1668.56 5126.5 1645.56 5134.5C1622.9 5142.17 1596.73 5146 1567.06 5146H1470.06ZM1500.06 5093H1563.06C1583.73 5093 1601.56 5090.5 1616.56 5085.5C1631.9 5080.17 1644.56 5072.5 1654.56 5062.5C1664.9 5052.17 1672.56 5039.33 1677.56 5024C1682.56 5008.33 1685.06 4990.17 1685.06 4969.5C1685.06 4928.17 1674.9 4897.33 1654.56 4877C1634.23 4856.67 1603.73 4846.5 1563.06 4846.5H1500.06V5093ZM1931.42 5151C1903.76 5151 1879.92 5145.83 1859.92 5135.5C1839.92 5125.17 1824.42 5110.5 1813.42 5091.5C1802.76 5072.5 1797.42 5050 1797.42 5024C1797.42 4998.67 1802.59 4976.5 1812.92 4957.5C1823.59 4938.5 1838.09 4923.67 1856.42 4913C1875.09 4902 1896.26 4896.5 1919.92 4896.5C1937.26 4896.5 1952.76 4899.33 1966.42 4905C1980.42 4910.67 1992.26 4918.83 2001.92 4929.5C2011.92 4940.17 2019.42 4953.17 2024.42 4968.5C2029.76 4983.5 2032.42 5000.5 2032.42 5019.5C2032.42 5025.5 2030.26 5030.17 2025.92 5033.5C2021.92 5036.5 2016.09 5038 2008.42 5038H1847.92V5002H1988.42L1980.42 5009.5C1980.42 4994.17 1978.09 4981.33 1973.42 4971C1969.09 4960.67 1962.59 4952.83 1953.92 4947.5C1945.59 4941.83 1935.09 4939 1922.42 4939C1908.42 4939 1896.42 4942.33 1886.42 4949C1876.76 4955.33 1869.26 4964.5 1863.92 4976.5C1858.92 4988.17 1856.42 5002.17 1856.42 5018.5V5022C1856.42 5049.33 1862.76 5069.83 1875.42 5083.5C1888.42 5096.83 1907.42 5103.5 1932.42 5103.5C1941.09 5103.5 1950.76 5102.5 1961.42 5100.5C1972.42 5098.17 1982.76 5094.33 1992.42 5089C1999.42 5085 2005.59 5083.33 2010.92 5084C2016.26 5084.33 2020.42 5086.17 2023.42 5089.5C2026.76 5092.83 2028.76 5097 2029.42 5102C2030.09 5106.67 2029.09 5111.5 2026.42 5116.5C2024.09 5121.5 2019.92 5125.83 2013.92 5129.5C2002.26 5136.83 1988.76 5142.33 1973.42 5146C1958.42 5149.33 1944.42 5151 1931.42 5151ZM2113.92 5150C2103.92 5150 2096.25 5147.33 2090.92 5142C2085.58 5136.33 2082.92 5128.33 2082.92 5118V4929C2082.92 4918.67 2085.58 4910.83 2090.92 4905.5C2096.25 4900.17 2103.75 4897.5 2113.42 4897.5C2123.08 4897.5 2130.58 4900.17 2135.92 4905.5C2141.25 4910.83 2143.92 4918.67 2143.92 4929V4965.5L2138.42 4950.5C2145.08 4933.83 2155.42 4920.67 2169.42 4911C2183.42 4901.33 2200.08 4896.5 2219.42 4896.5C2239.08 4896.5 2255.25 4901.17 2267.92 4910.5C2280.58 4919.83 2289.42 4934.17 2294.42 4953.5H2287.42C2294.08 4935.83 2305.08 4922 2320.42 4912C2335.75 4901.67 2353.42 4896.5 2373.42 4896.5C2392.08 4896.5 2407.42 4900.17 2419.42 4907.5C2431.75 4914.83 2440.92 4926 2446.92 4941C2452.92 4955.67 2455.92 4974.33 2455.92 4997V5118C2455.92 5128.33 2453.08 5136.33 2447.42 5142C2442.08 5147.33 2434.42 5150 2424.42 5150C2414.42 5150 2406.75 5147.33 2401.42 5142C2396.08 5136.33 2393.42 5128.33 2393.42 5118V4999.5C2393.42 4980.83 2390.25 4967.17 2383.92 4958.5C2377.92 4949.83 2367.58 4945.5 2352.92 4945.5C2336.58 4945.5 2323.75 4951.33 2314.42 4963C2305.08 4974.33 2300.42 4990.17 2300.42 5010.5V5118C2300.42 5128.33 2297.75 5136.33 2292.42 5142C2287.08 5147.33 2279.42 5150 2269.42 5150C2259.42 5150 2251.58 5147.33 2245.92 5142C2240.58 5136.33 2237.92 5128.33 2237.92 5118V4999.5C2237.92 4980.83 2234.75 4967.17 2228.42 4958.5C2222.42 4949.83 2212.25 4945.5 2197.92 4945.5C2181.58 4945.5 2168.75 4951.33 2159.42 4963C2150.08 4974.33 2145.42 4990.17 2145.42 5010.5V5118C2145.42 5139.33 2134.92 5150 2113.92 5150ZM2640.89 5151C2613.23 5151 2589.39 5145.83 2569.39 5135.5C2549.39 5125.17 2533.89 5110.5 2522.89 5091.5C2512.23 5072.5 2506.89 5050 2506.89 5024C2506.89 4998.67 2512.06 4976.5 2522.39 4957.5C2533.06 4938.5 2547.56 4923.67 2565.89 4913C2584.56 4902 2605.73 4896.5 2629.39 4896.5C2646.73 4896.5 2662.23 4899.33 2675.89 4905C2689.89 4910.67 2701.73 4918.83 2711.39 4929.5C2721.39 4940.17 2728.89 4953.17 2733.89 4968.5C2739.23 4983.5 2741.89 5000.5 2741.89 5019.5C2741.89 5025.5 2739.73 5030.17 2735.39 5033.5C2731.39 5036.5 2725.56 5038 2717.89 5038H2557.39V5002H2697.89L2689.89 5009.5C2689.89 4994.17 2687.56 4981.33 2682.89 4971C2678.56 4960.67 2672.06 4952.83 2663.39 4947.5C2655.06 4941.83 2644.56 4939 2631.89 4939C2617.89 4939 2605.89 4942.33 2595.89 4949C2586.23 4955.33 2578.73 4964.5 2573.39 4976.5C2568.39 4988.17 2565.89 5002.17 2565.89 5018.5V5022C2565.89 5049.33 2572.23 5069.83 2584.89 5083.5C2597.89 5096.83 2616.89 5103.5 2641.89 5103.5C2650.56 5103.5 2660.23 5102.5 2670.89 5100.5C2681.89 5098.17 2692.23 5094.33 2701.89 5089C2708.89 5085 2715.06 5083.33 2720.39 5084C2725.73 5084.33 2729.89 5086.17 2732.89 5089.5C2736.23 5092.83 2738.23 5097 2738.89 5102C2739.56 5106.67 2738.56 5111.5 2735.89 5116.5C2733.56 5121.5 2729.39 5125.83 2723.39 5129.5C2711.73 5136.83 2698.23 5142.33 2682.89 5146C2667.89 5149.33 2653.89 5151 2640.89 5151ZM2902.41 5151C2880.75 5151 2862.58 5147.33 2847.91 5140C2833.58 5132.67 2822.91 5122 2815.91 5108C2808.91 5093.67 2805.41 5076 2805.41 5055V4948.5H2779.41C2771.41 4948.5 2765.25 4946.5 2760.91 4942.5C2756.58 4938.17 2754.41 4932.33 2754.41 4925C2754.41 4917.33 2756.58 4911.5 2760.91 4907.5C2765.25 4903.5 2771.41 4901.5 2779.41 4901.5H2805.41V4856C2805.41 4845.67 2808.08 4837.83 2813.41 4832.5C2819.08 4827.17 2826.91 4824.5 2836.91 4824.5C2846.91 4824.5 2854.58 4827.17 2859.91 4832.5C2865.25 4837.83 2867.91 4845.67 2867.91 4856V4901.5H2920.91C2928.91 4901.5 2935.08 4903.5 2939.41 4907.5C2943.75 4911.5 2945.91 4917.33 2945.91 4925C2945.91 4932.33 2943.75 4938.17 2939.41 4942.5C2935.08 4946.5 2928.91 4948.5 2920.91 4948.5H2867.91V5051.5C2867.91 5067.5 2871.41 5079.5 2878.41 5087.5C2885.41 5095.5 2896.75 5099.5 2912.41 5099.5C2918.08 5099.5 2923.08 5099 2927.41 5098C2931.75 5097 2935.58 5096.33 2938.91 5096C2942.91 5095.67 2946.25 5097 2948.91 5100C2951.58 5102.67 2952.91 5108.33 2952.91 5117C2952.91 5123.67 2951.75 5129.67 2949.41 5135C2947.41 5140 2943.58 5143.5 2937.91 5145.5C2933.58 5146.83 2927.91 5148 2920.91 5149C2913.91 5150.33 2907.75 5151 2902.41 5151ZM3100.37 5151C3072.7 5151 3048.87 5145.83 3028.87 5135.5C3008.87 5125.17 2993.37 5110.5 2982.37 5091.5C2971.7 5072.5 2966.37 5050 2966.37 5024C2966.37 4998.67 2971.53 4976.5 2981.87 4957.5C2992.53 4938.5 3007.03 4923.67 3025.37 4913C3044.03 4902 3065.2 4896.5 3088.87 4896.5C3106.2 4896.5 3121.7 4899.33 3135.37 4905C3149.37 4910.67 3161.2 4918.83 3170.87 4929.5C3180.87 4940.17 3188.37 4953.17 3193.37 4968.5C3198.7 4983.5 3201.37 5000.5 3201.37 5019.5C3201.37 5025.5 3199.2 5030.17 3194.87 5033.5C3190.87 5036.5 3185.03 5038 3177.37 5038H3016.87V5002H3157.37L3149.37 5009.5C3149.37 4994.17 3147.03 4981.33 3142.37 4971C3138.03 4960.67 3131.53 4952.83 3122.87 4947.5C3114.53 4941.83 3104.03 4939 3091.37 4939C3077.37 4939 3065.37 4942.33 3055.37 4949C3045.7 4955.33 3038.2 4964.5 3032.87 4976.5C3027.87 4988.17 3025.37 5002.17 3025.37 5018.5V5022C3025.37 5049.33 3031.7 5069.83 3044.37 5083.5C3057.37 5096.83 3076.37 5103.5 3101.37 5103.5C3110.03 5103.5 3119.7 5102.5 3130.37 5100.5C3141.37 5098.17 3151.7 5094.33 3161.37 5089C3168.37 5085 3174.53 5083.33 3179.87 5084C3185.2 5084.33 3189.37 5086.17 3192.37 5089.5C3195.7 5092.83 3197.7 5097 3198.37 5102C3199.03 5106.67 3198.03 5111.5 3195.37 5116.5C3193.03 5121.5 3188.87 5125.83 3182.87 5129.5C3171.2 5136.83 3157.7 5142.33 3142.37 5146C3127.37 5149.33 3113.37 5151 3100.37 5151ZM3282.86 5150C3272.53 5150 3264.53 5147.33 3258.86 5142C3253.53 5136.33 3250.86 5128.33 3250.86 5118V4929C3250.86 4918.67 3253.53 4910.83 3258.86 4905.5C3264.2 4900.17 3271.7 4897.5 3281.36 4897.5C3291.03 4897.5 3298.53 4900.17 3303.86 4905.5C3309.2 4910.83 3311.86 4918.67 3311.86 4929V4960.5H3306.86C3311.53 4940.5 3320.7 4925.33 3334.36 4915C3348.03 4904.67 3366.2 4898.5 3388.86 4896.5C3395.86 4895.83 3401.36 4897.67 3405.36 4902C3409.7 4906 3412.2 4912.33 3412.86 4921C3413.53 4929.33 3411.53 4936.17 3406.86 4941.5C3402.53 4946.5 3395.86 4949.5 3386.86 4950.5L3375.86 4951.5C3355.53 4953.5 3340.2 4959.83 3329.86 4970.5C3319.53 4980.83 3314.36 4995.5 3314.36 5014.5V5118C3314.36 5128.33 3311.7 5136.33 3306.36 5142C3301.03 5147.33 3293.2 5150 3282.86 5150ZM3616.66 5151C3580 5151 3548.5 5143.67 3522.16 5129C3496.16 5114 3476.16 5093 3462.16 5066C3448.16 5038.67 3441.16 5006.5 3441.16 4969.5C3441.16 4941.83 3445.16 4917 3453.16 4895C3461.16 4872.67 3472.66 4853.67 3487.66 4838C3502.66 4822 3521 4809.83 3542.66 4801.5C3564.66 4792.83 3589.33 4788.5 3616.66 4788.5C3635 4788.5 3653 4790.83 3670.66 4795.5C3688.33 4800.17 3703.83 4806.83 3717.16 4815.5C3724.16 4819.83 3728.83 4825.17 3731.16 4831.5C3733.5 4837.5 3734 4843.5 3732.66 4849.5C3731.33 4855.17 3728.5 4860 3724.16 4864C3720.16 4868 3715 4870.33 3708.66 4871C3702.66 4871.33 3696 4869.17 3688.66 4864.5C3678.33 4857.83 3667.16 4853 3655.16 4850C3643.16 4847 3631 4845.5 3618.66 4845.5C3595 4845.5 3575 4850.33 3558.66 4860C3542.33 4869.67 3530 4883.67 3521.66 4902C3513.33 4920.33 3509.16 4942.83 3509.16 4969.5C3509.16 4995.83 3513.33 5018.33 3521.66 5037C3530 5055.67 3542.33 5069.83 3558.66 5079.5C3575 5089.17 3595 5094 3618.66 5094C3631.33 5094 3643.83 5092.5 3656.16 5089.5C3668.5 5086.17 3680.16 5081.17 3691.16 5074.5C3698.5 5070.17 3705 5068.33 3710.66 5069C3716.66 5069.33 3721.66 5071.33 3725.66 5075C3729.66 5078.67 3732.33 5083.33 3733.66 5089C3735 5094.33 3734.66 5100 3732.66 5106C3730.66 5111.67 3726.66 5116.67 3720.66 5121C3707.33 5130.67 3691.33 5138.17 3672.66 5143.5C3654.33 5148.5 3635.66 5151 3616.66 5151ZM3880.43 5151C3855.1 5151 3833.1 5145.83 3814.43 5135.5C3795.76 5125.17 3781.26 5110.5 3770.93 5091.5C3760.6 5072.17 3755.43 5049.5 3755.43 5023.5C3755.43 5003.83 3758.26 4986.33 3763.93 4971C3769.93 4955.33 3778.43 4942 3789.43 4931C3800.43 4919.67 3813.6 4911.17 3828.93 4905.5C3844.26 4899.5 3861.43 4896.5 3880.43 4896.5C3905.76 4896.5 3927.76 4901.67 3946.43 4912C3965.1 4922.33 3979.6 4937 3989.93 4956C4000.26 4975 4005.43 4997.5 4005.43 5023.5C4005.43 5043.17 4002.43 5060.83 3996.43 5076.5C3990.76 5092.17 3982.43 5105.67 3971.43 5117C3960.43 5128 3947.26 5136.5 3931.93 5142.5C3916.6 5148.17 3899.43 5151 3880.43 5151ZM3880.43 5103.5C3892.76 5103.5 3903.6 5100.5 3912.93 5094.5C3922.26 5088.5 3929.43 5079.67 3934.43 5068C3939.76 5056 3942.43 5041.17 3942.43 5023.5C3942.43 4996.83 3936.76 4977 3925.43 4964C3914.1 4950.67 3899.1 4944 3880.43 4944C3868.1 4944 3857.26 4947 3847.93 4953C3838.6 4958.67 3831.26 4967.5 3825.93 4979.5C3820.93 4991.17 3818.43 5005.83 3818.43 5023.5C3818.43 5049.83 3824.1 5069.83 3835.43 5083.5C3846.76 5096.83 3861.76 5103.5 3880.43 5103.5ZM4088.02 5149.5C4078.02 5149.5 4070.35 5146.5 4065.02 5140.5C4059.68 5134.5 4057.02 5126.17 4057.02 5115.5V4932C4057.02 4921 4059.68 4912.67 4065.02 4907C4070.35 4901 4078.02 4898 4088.02 4898C4098.02 4898 4105.68 4901 4111.02 4907C4116.68 4912.67 4119.52 4921 4119.52 4932V5115.5C4119.52 5126.17 4116.85 5134.5 4111.52 5140.5C4106.18 5146.5 4098.35 5149.5 4088.02 5149.5ZM4088.02 4851.5C4076.35 4851.5 4067.18 4848.67 4060.52 4843C4054.18 4837 4051.02 4828.83 4051.02 4818.5C4051.02 4807.83 4054.18 4799.67 4060.52 4794C4067.18 4788.33 4076.35 4785.5 4088.02 4785.5C4100.02 4785.5 4109.18 4788.33 4115.52 4794C4121.85 4799.67 4125.02 4807.83 4125.02 4818.5C4125.02 4828.83 4121.85 4837 4115.52 4843C4109.18 4848.67 4100.02 4851.5 4088.02 4851.5ZM4215.46 5150C4205.46 5150 4197.79 5147.33 4192.46 5142C4187.12 5136.33 4184.46 5128.33 4184.46 5118V4929C4184.46 4918.67 4187.12 4910.83 4192.46 4905.5C4197.79 4900.17 4205.29 4897.5 4214.96 4897.5C4224.62 4897.5 4232.12 4900.17 4237.46 4905.5C4242.79 4910.83 4245.46 4918.67 4245.46 4929V4963L4239.96 4950.5C4247.29 4932.83 4258.62 4919.5 4273.96 4910.5C4289.62 4901.17 4307.29 4896.5 4326.96 4896.5C4346.62 4896.5 4362.79 4900.17 4375.46 4907.5C4388.12 4914.83 4397.62 4926 4403.96 4941C4410.29 4955.67 4413.46 4974.33 4413.46 4997V5118C4413.46 5128.33 4410.79 5136.33 4405.46 5142C4400.12 5147.33 4392.46 5150 4382.46 5150C4372.46 5150 4364.62 5147.33 4358.96 5142C4353.62 5136.33 4350.96 5128.33 4350.96 5118V5000C4350.96 4981 4347.29 4967.17 4339.96 4958.5C4332.96 4949.83 4321.96 4945.5 4306.96 4945.5C4288.62 4945.5 4273.96 4951.33 4262.96 4963C4252.29 4974.33 4246.96 4989.5 4246.96 5008.5V5118C4246.96 5139.33 4236.46 5150 4215.46 5150Z" fill="white"/>
<path fill-rule="evenodd" clip-rule="evenodd" d="M295.093 2653.86C295.093 2651.4 295.093 2648.98 295.093 2646.52C295.093 2626.63 278.466 2610 258.545 2610C238.616 2610 222 2626.63 222 2646.52C222 2648.98 222 2651.4 222 2653.86C222 2673.78 238.616 2690.39 258.545 2690.39C278.466 2690.39 295.093 2673.78 295.093 2653.86Z" fill="#ECC900"/>
<path fill-rule="evenodd" clip-rule="evenodd" d="M295.093 2653.86C295.093 2651.4 295.093 2648.98 295.093 2646.52C295.093 2626.63 278.466 2610 258.545 2610C238.616 2610 222 2626.63 222 2646.52C222 2648.98 222 2651.4 222 2653.86C222 2673.78 238.616 2690.39 258.545 2690.39C278.466 2690.39 295.093 2673.78 295.093 2653.86Z" fill="#ECC900"/>
<path fill-rule="evenodd" clip-rule="evenodd" d="M487.093 2748.86C487.093 2746.4 487.093 2743.98 487.093 2741.52C487.093 2721.63 470.466 2705 450.545 2705C430.616 2705 414 2721.63 414 2741.52C414 2743.98 414 2746.4 414 2748.86C414 2768.78 430.616 2785.39 450.545 2785.39C470.466 2785.39 487.093 2768.78 487.093 2748.86Z" fill="#ECC900"/>
<path fill-rule="evenodd" clip-rule="evenodd" d="M487.093 2748.86C487.093 2746.4 487.093 2743.98 487.093 2741.52C487.093 2721.63 470.466 2705 450.545 2705C430.616 2705 414 2721.63 414 2741.52C414 2743.98 414 2746.4 414 2748.86C414 2768.78 430.616 2785.39 450.545 2785.39C470.466 2785.39 487.093 2768.78 487.093 2748.86Z" fill="#ECC900"/>
<path fill-rule="evenodd" clip-rule="evenodd" d="M534 3363.83C534 3361.6 534 3359.4 534 3357.17C534 3339.1 510.569 3324 482.497 3324C454.415 3324 431 3339.1 431 3357.17C431 3359.4 431 3361.6 431 3363.83C431 3381.91 454.415 3397 482.497 3397C510.569 3397 534 3381.91 534 3363.83Z" fill="#ECC900"/>
<path fill-rule="evenodd" clip-rule="evenodd" d="M534 3363.83C534 3361.6 534 3359.4 534 3357.17C534 3339.1 510.569 3324 482.497 3324C454.415 3324 431 3339.1 431 3357.17C431 3359.4 431 3361.6 431 3363.83C431 3381.91 454.415 3397 482.497 3397C510.569 3397 534 3381.91 534 3363.83Z" fill="#ECC900"/>
<path fill-rule="evenodd" clip-rule="evenodd" d="M813.093 2920.86C813.093 2918.4 813.093 2915.98 813.093 2913.52C813.093 2893.63 796.466 2877 776.545 2877C756.616 2877 740 2893.63 740 2913.52C740 2915.98 740 2918.4 740 2920.86C740 2940.78 756.616 2957.39 776.545 2957.39C796.466 2957.39 813.093 2940.78 813.093 2920.86Z" fill="#ECC900"/>
<path fill-rule="evenodd" clip-rule="evenodd" d="M813.093 2920.86C813.093 2918.4 813.093 2915.98 813.093 2913.52C813.093 2893.63 796.466 2877 776.545 2877C756.616 2877 740 2893.63 740 2913.52C740 2915.98 740 2918.4 740 2920.86C740 2940.78 756.616 2957.39 776.545 2957.39C796.466 2957.39 813.093 2940.78 813.093 2920.86Z" fill="#ECC900"/>
<path fill-rule="evenodd" clip-rule="evenodd" d="M1120.09 1244.86C1120.09 1242.4 1120.09 1239.98 1120.09 1237.52C1120.09 1217.63 1103.47 1201 1083.54 1201C1063.62 1201 1047 1217.63 1047 1237.52C1047 1239.98 1047 1242.4 1047 1244.86C1047 1264.78 1063.62 1281.39 1083.54 1281.39C1103.47 1281.39 1120.09 1264.78 1120.09 1244.86Z" fill="#ECC900"/>
<path fill-rule="evenodd" clip-rule="evenodd" d="M1120.09 1244.86C1120.09 1242.4 1120.09 1239.98 1120.09 1237.52C1120.09 1217.63 1103.47 1201 1083.54 1201C1063.62 1201 1047 1217.63 1047 1237.52C1047 1239.98 1047 1242.4 1047 1244.86C1047 1264.78 1063.62 1281.39 1083.54 1281.39C1103.47 1281.39 1120.09 1264.78 1120.09 1244.86Z" fill="#ECC900"/>
<path fill-rule="evenodd" clip-rule="evenodd" d="M3394.09 1304.86C3394.09 1302.4 3394.09 1299.98 3394.09 1297.52C3394.09 1277.63 3377.47 1261 3357.54 1261C3337.62 1261 3321 1277.63 3321 1297.52C3321 1299.98 3321 1302.4 3321 1304.86C3321 1324.78 3337.62 1341.39 3357.54 1341.39C3377.47 1341.39 3394.09 1324.78 3394.09 1304.86Z" fill="#ECC900"/>
<path fill-rule="evenodd" clip-rule="evenodd" d="M3394.09 1304.86C3394.09 1302.4 3394.09 1299.98 3394.09 1297.52C3394.09 1277.63 3377.47 1261 3357.54 1261C3337.62 1261 3321 1277.63 3321 1297.52C3321 1299.98 3321 1302.4 3321 1304.86C3321 1324.78 3337.62 1341.39 3357.54 1341.39C3377.47 1341.39 3394.09 1324.78 3394.09 1304.86Z" fill="#ECC900"/>
<path fill-rule="evenodd" clip-rule="evenodd" d="M3682.09 1314.86C3682.09 1312.4 3682.09 1309.98 3682.09 1307.52C3682.09 1287.63 3665.47 1271 3645.54 1271C3625.62 1271 3609 1287.63 3609 1307.52C3609 1309.98 3609 1312.4 3609 1314.86C3609 1334.78 3625.62 1351.39 3645.54 1351.39C3665.47 1351.39 3682.09 1334.78 3682.09 1314.86Z" fill="#ECC900"/>
<path fill-rule="evenodd" clip-rule="evenodd" d="M3682.09 1314.86C3682.09 1312.4 3682.09 1309.98 3682.09 1307.52C3682.09 1287.63 3665.47 1271 3645.54 1271C3625.62 1271 3609 1287.63 3609 1307.52C3609 1309.98 3609 1312.4 3609 1314.86C3609 1334.78 3625.62 1351.39 3645.54 1351.39C3665.47 1351.39 3682.09 1334.78 3682.09 1314.86Z" fill="#ECC900"/>
<path fill-rule="evenodd" clip-rule="evenodd" d="M3936.09 1381.86C3936.09 1379.4 3936.09 1376.98 3936.09 1374.52C3936.09 1354.63 3919.47 1338 3899.54 1338C3879.62 1338 3863 1354.63 3863 1374.52C3863 1376.98 3863 1379.4 3863 1381.86C3863 1401.78 3879.62 1418.39 3899.54 1418.39C3919.47 1418.39 3936.09 1401.78 3936.09 1381.86Z" fill="#ECC900"/>
<path fill-rule="evenodd" clip-rule="evenodd" d="M3936.09 1381.86C3936.09 1379.4 3936.09 1376.98 3936.09 1374.52C3936.09 1354.63 3919.47 1338 3899.54 1338C3879.62 1338 3863 1354.63 3863 1374.52C3863 1376.98 3863 1379.4 3863 1381.86C3863 1401.78 3879.62 1418.39 3899.54 1418.39C3919.47 1418.39 3936.09 1401.78 3936.09 1381.86Z" fill="#ECC900"/>
<path fill-rule="evenodd" clip-rule="evenodd" d="M4372 2142.56C4372 2139.17 4372 2135.82 4372 2132.43C4372 2104.96 4355.39 2082 4335.5 2082C4315.6 2082 4299 2104.96 4299 2132.43C4299 2135.82 4299 2139.17 4299 2142.56C4299 2170.06 4315.6 2193 4335.5 2193C4355.39 2193 4372 2170.06 4372 2142.56Z" fill="#ECC900"/>
<path fill-rule="evenodd" clip-rule="evenodd" d="M4372 2142.56C4372 2139.17 4372 2135.82 4372 2132.43C4372 2104.96 4355.39 2082 4335.5 2082C4315.6 2082 4299 2104.96 4299 2132.43C4299 2135.82 4299 2139.17 4299 2142.56C4299 2170.06 4315.6 2193 4335.5 2193C4355.39 2193 4372 2170.06 4372 2142.56Z" fill="#ECC900"/>
<path fill-rule="evenodd" clip-rule="evenodd" d="M4690.09 2099.86C4690.09 2097.4 4690.09 2094.98 4690.09 2092.52C4690.09 2072.63 4673.47 2056 4653.54 2056C4633.62 2056 4617 2072.63 4617 2092.52C4617 2094.98 4617 2097.4 4617 2099.86C4617 2119.78 4633.62 2136.39 4653.54 2136.39C4673.47 2136.39 4690.09 2119.78 4690.09 2099.86Z" fill="#ECC900"/>
<path fill-rule="evenodd" clip-rule="evenodd" d="M4690.09 2099.86C4690.09 2097.4 4690.09 2094.98 4690.09 2092.52C4690.09 2072.63 4673.47 2056 4653.54 2056C4633.62 2056 4617 2072.63 4617 2092.52C4617 2094.98 4617 2097.4 4617 2099.86C4617 2119.78 4633.62 2136.39 4653.54 2136.39C4673.47 2136.39 4690.09 2119.78 4690.09 2099.86Z" fill="#ECC900"/>
<path fill-rule="evenodd" clip-rule="evenodd" d="M3130.09 259.861C3130.09 257.403 3130.09 254.982 3130.09 252.525C3130.09 232.627 3113.47 216 3093.54 216C3073.62 216 3057 232.627 3057 252.525C3057 254.982 3057 257.403 3057 259.861C3057 279.777 3073.62 296.393 3093.54 296.393C3113.47 296.393 3130.09 279.777 3130.09 259.861Z" fill="#ECC900"/>
<path fill-rule="evenodd" clip-rule="evenodd" d="M3130.09 259.861C3130.09 257.403 3130.09 254.982 3130.09 252.525C3130.09 232.627 3113.47 216 3093.54 216C3073.62 216 3057 232.627 3057 252.525C3057 254.982 3057 257.403 3057 259.861C3057 279.777 3073.62 296.393 3093.54 296.393C3113.47 296.393 3130.09 279.777 3130.09 259.861Z" fill="#ECC900"/>
<path fill-rule="evenodd" clip-rule="evenodd" d="M4286.09 1273.86C4286.09 1271.4 4286.09 1268.98 4286.09 1266.52C4286.09 1246.63 4269.47 1230 4249.54 1230C4229.62 1230 4213 1246.63 4213 1266.52C4213 1268.98 4213 1271.4 4213 1273.86C4213 1293.78 4229.62 1310.39 4249.54 1310.39C4269.47 1310.39 4286.09 1293.78 4286.09 1273.86Z" fill="#ECC900"/>
<path fill-rule="evenodd" clip-rule="evenodd" d="M4286.09 1273.86C4286.09 1271.4 4286.09 1268.98 4286.09 1266.52C4286.09 1246.63 4269.47 1230 4249.54 1230C4229.62 1230 4213 1246.63 4213 1266.52C4213 1268.98 4213 1271.4 4213 1273.86C4213 1293.78 4229.62 1310.39 4249.54 1310.39C4269.47 1310.39 4286.09 1293.78 4286.09 1273.86Z" fill="#ECC900"/>
<path fill-rule="evenodd" clip-rule="evenodd" d="M5309.09 2349.86C5309.09 2347.4 5309.09 2344.98 5309.09 2342.52C5309.09 2322.63 5292.47 2306 5272.54 2306C5252.62 2306 5236 2322.63 5236 2342.52C5236 2344.98 5236 2347.4 5236 2349.86C5236 2369.78 5252.62 2386.39 5272.54 2386.39C5292.47 2386.39 5309.09 2369.78 5309.09 2349.86Z" fill="#ECC900"/>
<path fill-rule="evenodd" clip-rule="evenodd" d="M5309.09 2349.86C5309.09 2347.4 5309.09 2344.98 5309.09 2342.52C5309.09 2322.63 5292.47 2306 5272.54 2306C5252.62 2306 5236 2322.63 5236 2342.52C5236 2344.98 5236 2347.4 5236 2349.86C5236 2369.78 5252.62 2386.39 5272.54 2386.39C5292.47 2386.39 5309.09 2369.78 5309.09 2349.86Z" fill="#ECC900"/>
<path fill-rule="evenodd" clip-rule="evenodd" d="M4320.09 3516.86C4320.09 3514.4 4320.09 3511.98 4320.09 3509.52C4320.09 3489.63 4303.47 3473 4283.54 3473C4263.62 3473 4247 3489.63 4247 3509.52C4247 3511.98 4247 3514.4 4247 3516.86C4247 3536.78 4263.62 3553.39 4283.54 3553.39C4303.47 3553.39 4320.09 3536.78 4320.09 3516.86Z" fill="#ECC900"/>
<path fill-rule="evenodd" clip-rule="evenodd" d="M4320.09 3516.86C4320.09 3514.4 4320.09 3511.98 4320.09 3509.52C4320.09 3489.63 4303.47 3473 4283.54 3473C4263.62 3473 4247 3489.63 4247 3509.52C4247 3511.98 4247 3514.4 4247 3516.86C4247 3536.78 4263.62 3553.39 4283.54 3553.39C4303.47 3553.39 4320.09 3536.78 4320.09 3516.86Z" fill="#ECC900"/>
<path fill-rule="evenodd" clip-rule="evenodd" d="M5155.09 2917.86C5155.09 2915.4 5155.09 2912.98 5155.09 2910.52C5155.09 2890.63 5138.47 2874 5118.54 2874C5098.62 2874 5082 2890.63 5082 2910.52C5082 2912.98 5082 2915.4 5082 2917.86C5082 2937.78 5098.62 2954.39 5118.54 2954.39C5138.47 2954.39 5155.09 2937.78 5155.09 2917.86Z" fill="#ECC900"/>
<path fill-rule="evenodd" clip-rule="evenodd" d="M5155.09 2917.86C5155.09 2915.4 5155.09 2912.98 5155.09 2910.52C5155.09 2890.63 5138.47 2874 5118.54 2874C5098.62 2874 5082 2890.63 5082 2910.52C5082 2912.98 5082 2915.4 5082 2917.86C5082 2937.78 5098.62 2954.39 5118.54 2954.39C5138.47 2954.39 5155.09 2937.78 5155.09 2917.86Z" fill="#ECC900"/>
<path fill-rule="evenodd" clip-rule="evenodd" d="M5338 1865.46C5338 1863.81 5338 1862.18 5338 1860.53C5338 1847.17 5318.21 1836 5294.5 1836C5270.78 1836 5251 1847.17 5251 1860.53C5251 1862.18 5251 1863.81 5251 1865.46C5251 1878.84 5270.78 1890 5294.5 1890C5318.21 1890 5338 1878.84 5338 1865.46Z" fill="#ECC900"/>
<path fill-rule="evenodd" clip-rule="evenodd" d="M5338 1865.46C5338 1863.81 5338 1862.18 5338 1860.53C5338 1847.17 5318.21 1836 5294.5 1836C5270.78 1836 5251 1847.17 5251 1860.53C5251 1862.18 5251 1863.81 5251 1865.46C5251 1878.84 5270.78 1890 5294.5 1890C5318.21 1890 5338 1878.84 5338 1865.46Z" fill="#ECC900"/>
<path fill-rule="evenodd" clip-rule="evenodd" d="M4775 1535.1C4775 1532.02 4775 1528.97 4775 1525.89C4775 1500.89 4754.07 1480 4729 1480C4703.91 1480 4683 1500.89 4683 1525.89C4683 1528.97 4683 1532.02 4683 1535.1C4683 1560.13 4703.91 1581 4729 1581C4754.07 1581 4775 1560.13 4775 1535.1Z" fill="#ECC900"/>
<path fill-rule="evenodd" clip-rule="evenodd" d="M4775 1535.1C4775 1532.02 4775 1528.97 4775 1525.89C4775 1500.89 4754.07 1480 4729 1480C4703.91 1480 4683 1500.89 4683 1525.89C4683 1528.97 4683 1532.02 4683 1535.1C4683 1560.13 4703.91 1581 4729 1581C4754.07 1581 4775 1560.13 4775 1535.1Z" fill="#ECC900"/>
<path fill-rule="evenodd" clip-rule="evenodd" d="M3921.09 2714.86C3921.09 2712.4 3921.09 2709.98 3921.09 2707.52C3921.09 2687.63 3904.47 2671 3884.54 2671C3864.62 2671 3848 2687.63 3848 2707.52C3848 2709.98 3848 2712.4 3848 2714.86C3848 2734.78 3864.62 2751.39 3884.54 2751.39C3904.47 2751.39 3921.09 2734.78 3921.09 2714.86Z" fill="#ECC900"/>
<path fill-rule="evenodd" clip-rule="evenodd" d="M3921.09 2714.86C3921.09 2712.4 3921.09 2709.98 3921.09 2707.52C3921.09 2687.63 3904.47 2671 3884.54 2671C3864.62 2671 3848 2687.63 3848 2707.52C3848 2709.98 3848 2712.4 3848 2714.86C3848 2734.78 3864.62 2751.39 3884.54 2751.39C3904.47 2751.39 3921.09 2734.78 3921.09 2714.86Z" fill="#ECC900"/>
<path fill-rule="evenodd" clip-rule="evenodd" d="M4551.09 2724.86C4551.09 2722.4 4551.09 2719.98 4551.09 2717.52C4551.09 2697.63 4534.47 2681 4514.54 2681C4494.62 2681 4478 2697.63 4478 2717.52C4478 2719.98 4478 2722.4 4478 2724.86C4478 2744.78 4494.62 2761.39 4514.54 2761.39C4534.47 2761.39 4551.09 2744.78 4551.09 2724.86Z" fill="#ECC900"/>
<path fill-rule="evenodd" clip-rule="evenodd" d="M4551.09 2724.86C4551.09 2722.4 4551.09 2719.98 4551.09 2717.52C4551.09 2697.63 4534.47 2681 4514.54 2681C4494.62 2681 4478 2697.63 4478 2717.52C4478 2719.98 4478 2722.4 4478 2724.86C4478 2744.78 4494.62 2761.39 4514.54 2761.39C4534.47 2761.39 4551.09 2744.78 4551.09 2724.86Z" fill="#ECC900"/>
<path fill-rule="evenodd" clip-rule="evenodd" d="M328 2662.83C328 2658.92 328 2655.07 328 2651.15C328 2619.47 305.479 2593 278.497 2593C251.506 2593 229 2619.47 229 2651.15C229 2655.07 229 2658.92 229 2662.83C229 2694.54 251.506 2721 278.497 2721C305.479 2721 328 2694.54 328 2662.83Z" fill="#ECC900"/>
<path fill-rule="evenodd" clip-rule="evenodd" d="M328 2662.83C328 2658.92 328 2655.07 328 2651.15C328 2619.47 305.479 2593 278.497 2593C251.506 2593 229 2619.47 229 2651.15C229 2655.07 229 2658.92 229 2662.83C229 2694.54 251.506 2721 278.497 2721C305.479 2721 328 2694.54 328 2662.83Z" fill="#ECC900"/>
<path fill-rule="evenodd" clip-rule="evenodd" d="M1429.09 3124.86C1429.09 3122.4 1429.09 3119.98 1429.09 3117.52C1429.09 3097.63 1412.47 3081 1392.54 3081C1372.62 3081 1356 3097.63 1356 3117.52C1356 3119.98 1356 3122.4 1356 3124.86C1356 3144.78 1372.62 3161.39 1392.54 3161.39C1412.47 3161.39 1429.09 3144.78 1429.09 3124.86Z" fill="#ECC900"/>
<path fill-rule="evenodd" clip-rule="evenodd" d="M1429.09 3124.86C1429.09 3122.4 1429.09 3119.98 1429.09 3117.52C1429.09 3097.63 1412.47 3081 1392.54 3081C1372.62 3081 1356 3097.63 1356 3117.52C1356 3119.98 1356 3122.4 1356 3124.86C1356 3144.78 1372.62 3161.39 1392.54 3161.39C1412.47 3161.39 1429.09 3144.78 1429.09 3124.86Z" fill="#ECC900"/>
</g>
<defs>
<clipPath id="clip0_403_1222">
<rect width="5785" height="6000" fill="white"/>
</clipPath>
</defs>
</svg>
